<svg width="64" height="64" viewBox="0 0 64 64" fill="none" xmlns="http://www.w3.org/2000/svg">
<rect width="64" height="64" rx="10" fill="#D9D9D9"/>
<path d="M14.3633 20.8711C14.3372 19.8945 14.526 19.0286 14.9297 18.2734C15.3464 17.5182 15.9453 16.8802 16.7266 16.3594C17.5078 15.8385 18.4648 15.4479 19.5977 15.1875C20.7305 14.9141 22.0065 14.7773 23.4258 14.7773C24.8451 14.7773 26.1211 14.9141 27.2539 15.1875C28.3867 15.4479 29.3438 15.8385 30.125 16.3594C30.9193 16.8802 31.5182 17.5182 31.9219 18.2734C32.3385 19.0286 32.5339 19.8945 32.5078 20.8711L31.9414 42.668C31.9154 43.5143 31.7005 44.2826 31.2969 44.9727C30.9062 45.6497 30.3398 46.2357 29.5977 46.7305C28.8685 47.2122 27.9831 47.5833 26.9414 47.8438C25.8997 48.1042 24.7279 48.2344 23.4258 48.2344C22.1107 48.2344 20.9323 48.1042 19.8906 47.8438C18.862 47.5833 17.9831 47.2122 17.2539 46.7305C16.5247 46.2357 15.9583 45.6497 15.5547 44.9727C15.1641 44.2826 14.9557 43.5143 14.9297 42.668L14.3633 20.8711ZM20.2617 41.9062C20.2357 43 20.4701 43.7747 20.9648 44.2305C21.4596 44.6732 22.2799 44.8945 23.4258 44.8945C24.5716 44.8945 25.3919 44.6732 25.8867 44.2305C26.3945 43.7747 26.6354 43 26.6094 41.9062L26.0234 20.8711C26.0104 20.3112 25.9453 19.862 25.8281 19.5234C25.7109 19.1719 25.5417 18.9115 25.3203 18.7422C25.112 18.5599 24.8451 18.4427 24.5195 18.3906C24.207 18.3255 23.8424 18.293 23.4258 18.293C23.0091 18.293 22.638 18.3255 22.3125 18.3906C22 18.4427 21.7331 18.5599 21.5117 18.7422C21.3034 18.9115 21.1406 19.1719 21.0234 19.5234C20.9193 19.862 20.8607 20.3112 20.8477 20.8711L20.2617 41.9062ZM39.2563 23.0391H39.1L36.4047 25.6758C36.1964 25.8841 35.988 26.0469 35.7797 26.1641C35.5714 26.2682 35.3956 26.3203 35.2523 26.3203C35.1742 26.3203 35.0896 26.3073 34.9984 26.2812C34.9073 26.2552 34.8227 26.2031 34.7445 26.125C34.6794 26.0339 34.6208 25.9102 34.5688 25.7539C34.5297 25.5977 34.5102 25.3828 34.5102 25.1094V21.75C34.5102 21.4505 34.5232 21.1901 34.5492 20.9688C34.5753 20.7474 34.6208 20.5521 34.6859 20.3828C34.7641 20.2005 34.8552 20.0378 34.9594 19.8945C35.0766 19.7383 35.2198 19.5755 35.3891 19.4062L39.0609 15.5586L39.0805 15.5391L39.1391 15.4805C39.3474 15.2852 39.6794 15.1549 40.1352 15.0898C40.6039 15.0247 41.268 14.9922 42.1273 14.9922C42.8174 14.9922 43.3969 15.0182 43.8656 15.0703C44.3474 15.1094 44.7315 15.1875 45.018 15.3047C45.3174 15.4219 45.5258 15.5846 45.643 15.793C45.7732 16.0013 45.8318 16.2747 45.8188 16.6133L44.9594 46.6719C44.9464 46.9714 44.8878 47.2122 44.7836 47.3945C44.6924 47.5638 44.5297 47.694 44.2953 47.7852C44.074 47.8763 43.7875 47.9349 43.4359 47.9609C43.0844 47.987 42.6482 48 42.1273 48C41.6065 48 41.1898 47.987 40.8773 47.9609C40.5648 47.9349 40.3174 47.8763 40.1352 47.7852C39.9659 47.694 39.8487 47.5638 39.7836 47.3945C39.7185 47.2122 39.6859 46.9714 39.6859 46.6719L39.2563 23.0391Z" fill="#7E62C9"/>
</svg>
