<svg width="64" height="64" viewBox="0 0 64 64" fill="none" xmlns="http://www.w3.org/2000/svg">
<rect width="64" height="64" rx="10" fill="#D9D9D9"/>
<path d="M8.625 16.6523C8.67708 16.2878 8.76172 15.9883 8.87891 15.7539C9.00911 15.5195 9.23698 15.3372 9.5625 15.207C9.90104 15.0768 10.3828 14.9922 11.0078 14.9531C11.6328 14.901 12.4792 14.875 13.5469 14.875C14.6016 14.875 15.4414 14.901 16.0664 14.9531C16.6914 14.9922 17.1667 15.0768 17.4922 15.207C17.8307 15.3372 18.0586 15.5195 18.1758 15.7539C18.293 15.9883 18.3841 16.2878 18.4492 16.6523L23.625 46.4766C23.6771 46.8281 23.6706 47.1081 23.6055 47.3164C23.5534 47.5117 23.4232 47.6615 23.2148 47.7656C23.0195 47.8698 22.7461 47.9349 22.3945 47.9609C22.043 47.987 21.6133 48 21.1055 48C20.4805 48 19.9792 47.987 19.6016 47.9609C19.237 47.9349 18.9505 47.8698 18.7422 47.7656C18.5339 47.6615 18.3776 47.5117 18.2734 47.3164C18.1823 47.1081 18.1107 46.8281 18.0586 46.4766L17.2578 41.8086H9.81641L9.01562 46.4766C8.95052 46.8281 8.8724 47.1081 8.78125 47.3164C8.6901 47.5117 8.54036 47.6615 8.33203 47.7656C8.1237 47.8698 7.83073 47.9349 7.45312 47.9609C7.08854 47.987 6.59375 48 5.96875 48C5.46094 48 5.03125 47.987 4.67969 47.9609C4.34115 47.9349 4.06771 47.8698 3.85938 47.7656C3.65104 47.6615 3.51432 47.5117 3.44922 47.3164C3.38411 47.1081 3.38411 46.8281 3.44922 46.4766L8.625 16.6523ZM16.6133 38.0977L13.625 20.7734H13.4492L10.4609 38.0977H16.6133ZM23.6523 15.7539C23.6523 15.4805 23.6784 15.2526 23.7305 15.0703C23.7956 14.875 23.9388 14.7253 24.1602 14.6211C24.3815 14.5169 24.7005 14.4453 25.1172 14.4062C25.5469 14.3542 26.1133 14.3281 26.8164 14.3281C27.5195 14.3281 28.0794 14.3542 28.4961 14.4062C28.9258 14.4453 29.2513 14.5169 29.4727 14.6211C29.694 14.7253 29.8307 14.875 29.8828 15.0703C29.9479 15.2526 29.9805 15.4805 29.9805 15.7539L29.7656 26.5156C29.987 26.2812 30.2474 26.0339 30.5469 25.7734C30.8594 25.5 31.2109 25.2591 31.6016 25.0508C31.9922 24.8294 32.4219 24.6471 32.8906 24.5039C33.3724 24.3607 33.8932 24.2891 34.4531 24.2891C35.3646 24.2891 36.1914 24.4518 36.9336 24.7773C37.6758 25.0898 38.3073 25.5326 38.8281 26.1055C39.362 26.6784 39.7656 27.362 40.0391 28.1562C40.3125 28.9505 40.4362 29.8164 40.4102 30.7539L40.0586 41.75C40.0195 42.9219 39.8633 43.9245 39.5898 44.7578C39.3164 45.5781 38.9388 46.2487 38.457 46.7695C37.9883 47.2773 37.4154 47.6484 36.7383 47.8828C36.0612 48.1172 35.306 48.2344 34.4727 48.2344C33.8607 48.2344 33.2943 48.1693 32.7734 48.0391C32.2526 47.9219 31.7708 47.7656 31.3281 47.5703C30.8854 47.362 30.4818 47.1341 30.1172 46.8867C29.7656 46.6393 29.4531 46.3919 29.1797 46.1445V46.8867C29.1797 47.1341 29.1471 47.3294 29.082 47.4727C29.0299 47.6159 28.9193 47.7266 28.75 47.8047C28.5807 47.8828 28.3398 47.9349 28.0273 47.9609C27.7279 47.987 27.3242 48 26.8164 48C26.2695 48 25.8268 47.987 25.4883 47.9609C25.1628 47.9349 24.9089 47.8828 24.7266 47.8047C24.5573 47.7266 24.4401 47.6159 24.375 47.4727C24.3099 47.3294 24.2773 47.1341 24.2773 46.8867L23.6523 15.7539ZM29.4531 43.7422C29.7526 44.0026 30.1172 44.237 30.5469 44.4453C30.9896 44.6406 31.4844 44.7383 32.0312 44.7383C32.8646 44.7383 33.5156 44.4844 33.9844 43.9766C34.4661 43.4557 34.694 42.7135 34.668 41.75L34.375 30.7539C34.362 30.3112 34.2904 29.9336 34.1602 29.6211C34.043 29.3086 33.8802 29.0612 33.6719 28.8789C33.4766 28.6836 33.2487 28.5469 32.9883 28.4688C32.7279 28.3776 32.4544 28.332 32.168 28.332C31.7122 28.332 31.263 28.4362 30.8203 28.6445C30.3906 28.8529 30.026 29.0872 29.7266 29.3477L29.4531 43.7422ZM41.7461 30.2266C41.707 29.1849 41.9154 28.293 42.3711 27.5508C42.8398 26.7956 43.4648 26.1771 44.2461 25.6953C45.0404 25.2135 45.9518 24.862 46.9805 24.6406C48.0091 24.4062 49.0638 24.2891 50.1445 24.2891C51.2513 24.2891 52.319 24.4062 53.3477 24.6406C54.3763 24.862 55.2812 25.2135 56.0625 25.6953C56.8438 26.1771 57.4622 26.7956 57.918 27.5508C58.3737 28.293 58.582 29.1849 58.543 30.2266L58.3477 36.3008C58.3346 36.5482 58.2891 36.7435 58.2109 36.8867C58.1328 37.0299 57.9896 37.1406 57.7812 37.2188C57.5729 37.2969 57.2799 37.349 56.9023 37.375C56.5247 37.401 56.0365 37.4141 55.4375 37.4141C54.8255 37.4141 54.3307 37.401 53.9531 37.375C53.5755 37.349 53.2826 37.2969 53.0742 37.2188C52.8659 37.1406 52.7227 37.0299 52.6445 36.8867C52.5794 36.7435 52.5404 36.5482 52.5273 36.3008L52.3516 29.8945C52.3385 29.3477 52.2734 28.9049 52.1562 28.5664C52.0521 28.2279 51.9023 27.9674 51.707 27.7852C51.5117 27.6029 51.2839 27.4857 51.0234 27.4336C50.763 27.3685 50.4701 27.3359 50.1445 27.3359C49.819 27.3359 49.526 27.3685 49.2656 27.4336C49.0052 27.4857 48.7773 27.6029 48.582 27.7852C48.3867 27.9674 48.2305 28.2279 48.1133 28.5664C48.0091 28.9049 47.9505 29.3477 47.9375 29.8945L47.5469 42.7656C47.5339 43.2604 47.5729 43.6771 47.6641 44.0156C47.7682 44.3542 47.9245 44.6276 48.1328 44.8359C48.3542 45.0443 48.6276 45.194 48.9531 45.2852C49.2917 45.3763 49.6888 45.4219 50.1445 45.4219C51.056 45.4219 51.7135 45.2396 52.1172 44.875C52.5339 44.5104 52.7422 43.8659 52.7422 42.9414V42.3359C52.7422 42.0885 52.7747 41.8867 52.8398 41.7305C52.9049 41.5612 53.0286 41.431 53.2109 41.3398C53.4062 41.2357 53.6797 41.1641 54.0312 41.125C54.3828 41.0859 54.8516 41.0664 55.4375 41.0664C56.0104 41.0664 56.4727 41.0859 56.8242 41.125C57.1758 41.1641 57.4427 41.2357 57.625 41.3398C57.8203 41.431 57.9505 41.5547 58.0156 41.7109C58.0807 41.8672 58.1133 42.069 58.1133 42.3164V42.7852C58.1133 43.8138 57.8854 44.6797 57.4297 45.3828C56.974 46.0729 56.375 46.6328 55.6328 47.0625C54.8906 47.4792 54.0443 47.7786 53.0938 47.9609C52.1432 48.1432 51.1667 48.2344 50.1641 48.2344C49.1484 48.2344 48.1719 48.1432 47.2344 47.9609C46.2969 47.7656 45.457 47.4531 44.7148 47.0234C43.9857 46.5807 43.3932 46.0013 42.9375 45.2852C42.4818 44.569 42.2344 43.6771 42.1953 42.6094L41.7461 30.2266Z" fill="#7E62C9"/>
</svg>
