<svg width="64" height="64" viewBox="0 0 64 64" fill="none" xmlns="http://www.w3.org/2000/svg">
<rect width="64" height="64" rx="10" fill="#7E62C9"/>
<path d="M16.4609 13.6641C16.4349 13.026 16.4544 12.5247 16.5195 12.1602C16.5977 11.7826 16.7474 11.4961 16.9688 11.3008C17.2031 11.1055 17.5286 10.9818 17.9453 10.9297C18.362 10.8776 18.9023 10.8516 19.5664 10.8516H25.6406C25.9141 10.8516 26.1289 10.8711 26.2852 10.9102C26.4414 10.9492 26.5586 11.0273 26.6367 11.1445C26.7148 11.2617 26.7604 11.431 26.7734 11.6523C26.7995 11.8607 26.8125 12.1406 26.8125 12.4922C26.8125 12.8828 26.793 13.2018 26.7539 13.4492C26.7279 13.6836 26.6693 13.8659 26.5781 13.9961C26.487 14.1263 26.3698 14.2109 26.2266 14.25C26.0833 14.2891 25.8945 14.3086 25.6602 14.3086L21.9688 14.3281L21.2461 50.5H25.1328C25.3802 50.5 25.5755 50.5195 25.7188 50.5586C25.862 50.6107 25.9661 50.6953 26.0312 50.8125C26.1094 50.9297 26.1549 51.099 26.168 51.3203C26.194 51.5417 26.207 51.8281 26.207 52.1797C26.207 52.5312 26.1875 52.8112 26.1484 53.0195C26.1224 53.2279 26.0638 53.3841 25.9727 53.4883C25.8815 53.6055 25.7578 53.6771 25.6016 53.7031C25.4583 53.7292 25.263 53.7422 25.0156 53.7422H19.3516C18.987 53.7422 18.6875 53.7227 18.4531 53.6836C18.2188 53.6445 18.0299 53.5599 17.8867 53.4297C17.7565 53.2995 17.6654 53.1107 17.6133 52.8633C17.5612 52.6289 17.5286 52.3099 17.5156 51.9062L16.4609 13.6641ZM42.5352 50.5L41.8125 14.3281L38.1211 14.3086C37.8867 14.3086 37.6979 14.2891 37.5547 14.25C37.4115 14.2109 37.2943 14.1263 37.2031 13.9961C37.112 13.8659 37.0469 13.6836 37.0078 13.4492C36.9818 13.2018 36.9688 12.8828 36.9688 12.4922C36.9688 12.1406 36.9753 11.8607 36.9883 11.6523C37.0143 11.431 37.0664 11.2617 37.1445 11.1445C37.2227 11.0273 37.3398 10.9492 37.4961 10.9102C37.6523 10.8711 37.8672 10.8516 38.1406 10.8516H44.2148C44.8789 10.8516 45.4193 10.8776 45.8359 10.9297C46.2526 10.9818 46.5716 11.1055 46.793 11.3008C47.0273 11.4961 47.1771 11.7826 47.2422 12.1602C47.3073 12.5247 47.3333 13.026 47.3203 13.6641L46.2656 51.9062C46.2526 52.3099 46.2135 52.6289 46.1484 52.8633C46.0964 53.1107 45.9987 53.2995 45.8555 53.4297C45.7253 53.5599 45.543 53.6445 45.3086 53.6836C45.0872 53.7227 44.7943 53.7422 44.4297 53.7422H38.7656C38.5182 53.7422 38.3164 53.7292 38.1602 53.7031C38.0039 53.6771 37.8802 53.6055 37.7891 53.4883C37.7109 53.3841 37.6523 53.2279 37.6133 53.0195C37.5872 52.8112 37.5742 52.5312 37.5742 52.1797C37.5742 51.8281 37.5807 51.5417 37.5938 51.3203C37.6198 51.099 37.6654 50.9297 37.7305 50.8125C37.8086 50.6953 37.9193 50.6107 38.0625 50.5586C38.2057 50.5195 38.401 50.5 38.6484 50.5H42.5352Z" fill="#D9D9D9"/>
</svg>
