<svg width="64" height="64" viewBox="0 0 64 64" fill="none" xmlns="http://www.w3.org/2000/svg">
<rect width="64" height="64" rx="10" fill="#7E62C9"/>
<path d="M17.0586 38.293C17.0456 37.8112 16.974 37.4076 16.8438 37.082C16.7135 36.7565 16.5312 36.5026 16.2969 36.3203C16.0625 36.138 15.776 36.0078 15.4375 35.9297C15.112 35.8516 14.7474 35.8125 14.3438 35.8125H13.9922C13.6927 35.8125 13.4583 35.7799 13.2891 35.7148C13.1328 35.6497 13.0156 35.5521 12.9375 35.4219C12.8594 35.2786 12.8138 35.0964 12.8008 34.875C12.7878 34.6536 12.7812 34.3802 12.7812 34.0547C12.7812 33.7292 12.7878 33.4557 12.8008 33.2344C12.8138 33 12.8594 32.8177 12.9375 32.6875C13.0156 32.5443 13.1328 32.4466 13.2891 32.3945C13.4583 32.3294 13.6927 32.2969 13.9922 32.2969H14.3438C15.151 32.2969 15.7695 32.0755 16.1992 31.6328C16.6289 31.1771 16.8307 30.4219 16.8047 29.3672L16.5117 17.9219C16.4857 16.9062 16.5573 15.9688 16.7266 15.1094C16.8958 14.237 17.2279 13.4883 17.7227 12.8633C18.2305 12.2383 18.9271 11.75 19.8125 11.3984C20.6979 11.0339 21.8438 10.8516 23.25 10.8516H25.5742C25.8477 10.8516 26.0625 10.8711 26.2188 10.9102C26.375 10.9492 26.4922 11.0273 26.5703 11.1445C26.6484 11.2617 26.694 11.431 26.707 11.6523C26.7331 11.8607 26.7461 12.1406 26.7461 12.4922C26.7461 12.8828 26.7266 13.2018 26.6875 13.4492C26.6615 13.6836 26.6029 13.8659 26.5117 13.9961C26.4206 14.1263 26.3034 14.2109 26.1602 14.25C26.0169 14.2891 25.8281 14.3086 25.5938 14.3086H24.5391C23.9922 14.3086 23.543 14.3672 23.1914 14.4844C22.8529 14.5885 22.5794 14.7839 22.3711 15.0703C22.1758 15.3438 22.0391 15.7148 21.9609 16.1836C21.8828 16.6393 21.8372 17.2188 21.8242 17.9219L21.6484 27.707C21.6354 28.3581 21.5964 28.9766 21.5312 29.5625C21.4792 30.1354 21.3555 30.6758 21.1602 31.1836C20.9648 31.6914 20.6719 32.1732 20.2812 32.6289C19.8906 33.0716 19.3633 33.4948 18.6992 33.8984V34.0547C19.3503 34.4714 19.8581 34.8685 20.2227 35.2461C20.6003 35.6107 20.8802 36.0078 21.0625 36.4375C21.2448 36.8672 21.3555 37.3424 21.3945 37.8633C21.4336 38.3841 21.4466 38.9961 21.4336 39.6992L21.2578 47.1016C21.2448 47.6745 21.2773 48.1758 21.3555 48.6055C21.4466 49.0352 21.6094 49.3867 21.8438 49.6602C22.0781 49.9466 22.3906 50.1549 22.7812 50.2852C23.1719 50.4284 23.6602 50.5 24.2461 50.5H25.0664C25.3138 50.5 25.5091 50.5195 25.6523 50.5586C25.7956 50.6107 25.8997 50.6953 25.9648 50.8125C26.043 50.9297 26.0885 51.099 26.1016 51.3203C26.1276 51.5417 26.1406 51.8281 26.1406 52.1797C26.1406 52.5312 26.1211 52.8112 26.082 53.0195C26.056 53.2279 25.9974 53.3841 25.9062 53.4883C25.8151 53.6055 25.6914 53.6771 25.5352 53.7031C25.3919 53.7292 25.1966 53.7422 24.9492 53.7422H23.9141C22.6641 53.7422 21.6224 53.599 20.7891 53.3125C19.9557 53.026 19.2852 52.6029 18.7773 52.043C18.2695 51.4831 17.8984 50.7865 17.6641 49.9531C17.4427 49.1328 17.319 48.1823 17.293 47.1016L17.0586 38.293ZM39.8125 50.5C40.3984 50.5 40.8867 50.4284 41.2773 50.2852C41.668 50.1549 41.9805 49.9466 42.2148 49.6602C42.4492 49.3867 42.6055 49.0352 42.6836 48.6055C42.7747 48.1758 42.8138 47.6745 42.8008 47.1016L42.625 39.6992C42.612 38.9961 42.625 38.3841 42.6641 37.8633C42.7031 37.3424 42.8138 36.8672 42.9961 36.4375C43.1784 36.0078 43.4518 35.6107 43.8164 35.2461C44.194 34.8685 44.7083 34.4714 45.3594 34.0547V33.8984C44.6953 33.4948 44.168 33.0716 43.7773 32.6289C43.3867 32.1732 43.0938 31.6914 42.8984 31.1836C42.7031 30.6758 42.5729 30.1354 42.5078 29.5625C42.4557 28.9766 42.4232 28.3581 42.4102 27.707L42.2344 17.9219C42.2214 17.2188 42.1758 16.6393 42.0977 16.1836C42.0195 15.7148 41.8763 15.3438 41.668 15.0703C41.4727 14.7839 41.1992 14.5885 40.8477 14.4844C40.5091 14.3672 40.0664 14.3086 39.5195 14.3086H38.4648C38.2305 14.3086 38.0417 14.2891 37.8984 14.25C37.7552 14.2109 37.638 14.1263 37.5469 13.9961C37.4557 13.8659 37.3906 13.6836 37.3516 13.4492C37.3255 13.2018 37.3125 12.8828 37.3125 12.4922C37.3125 12.1406 37.319 11.8607 37.332 11.6523C37.3581 11.431 37.4102 11.2617 37.4883 11.1445C37.5664 11.0273 37.6836 10.9492 37.8398 10.9102C37.9961 10.8711 38.2109 10.8516 38.4844 10.8516H40.8086C42.2148 10.8516 43.3607 11.0339 44.2461 11.3984C45.1315 11.75 45.8216 12.2383 46.3164 12.8633C46.8242 13.4883 47.1628 14.237 47.332 15.1094C47.5013 15.9688 47.5729 16.9062 47.5469 17.9219L47.2539 29.3672C47.2279 30.4219 47.4297 31.1771 47.8594 31.6328C48.2891 32.0755 48.9076 32.2969 49.7148 32.2969H50.0664C50.3659 32.2969 50.5938 32.3294 50.75 32.3945C50.9193 32.4466 51.043 32.5443 51.1211 32.6875C51.1992 32.8177 51.2448 33 51.2578 33.2344C51.2708 33.4557 51.2773 33.7292 51.2773 34.0547C51.2773 34.3802 51.2643 34.6536 51.2383 34.875C51.2253 35.0964 51.1797 35.2786 51.1016 35.4219C51.0234 35.5521 50.8997 35.6497 50.7305 35.7148C50.5742 35.7799 50.3529 35.8125 50.0664 35.8125H49.7148C49.2982 35.8125 48.9271 35.8516 48.6016 35.9297C48.276 36.0078 47.9961 36.138 47.7617 36.3203C47.5273 36.5026 47.3451 36.7565 47.2148 37.082C47.0846 37.4076 47.013 37.8112 47 38.293L46.7656 47.1016C46.7396 48.1823 46.6094 49.1328 46.375 49.9531C46.1536 50.7865 45.7891 51.4831 45.2812 52.043C44.7734 52.6029 44.1029 53.026 43.2695 53.3125C42.4362 53.599 41.3945 53.7422 40.1445 53.7422H39.1094C38.862 53.7422 38.6602 53.7292 38.5039 53.7031C38.3477 53.6771 38.224 53.6055 38.1328 53.4883C38.0547 53.3841 37.9961 53.2279 37.957 53.0195C37.931 52.8112 37.918 52.5312 37.918 52.1797C37.918 51.8281 37.9245 51.5417 37.9375 51.3203C37.9635 51.099 38.0091 50.9297 38.0742 50.8125C38.1523 50.6953 38.263 50.6107 38.4062 50.5586C38.5495 50.5195 38.7448 50.5 38.9922 50.5H39.8125Z" fill="#D9D9D9"/>
</svg>
