<svg width="64" height="64" viewBox="0 0 64 64" fill="none" xmlns="http://www.w3.org/2000/svg">
<rect width="64" height="64" rx="10" fill="#D9D9D9"/>
<path d="M9.76562 23.0391H9.60938L6.91406 25.6758C6.70573 25.8841 6.4974 26.0469 6.28906 26.1641C6.08073 26.2682 5.90495 26.3203 5.76172 26.3203C5.68359 26.3203 5.59896 26.3073 5.50781 26.2812C5.41667 26.2552 5.33203 26.2031 5.25391 26.125C5.1888 26.0339 5.13021 25.9102 5.07812 25.7539C5.03906 25.5977 5.01953 25.3828 5.01953 25.1094V21.75C5.01953 21.4505 5.03255 21.1901 5.05859 20.9688C5.08464 20.7474 5.13021 20.5521 5.19531 20.3828C5.27344 20.2005 5.36458 20.0378 5.46875 19.8945C5.58594 19.7383 5.72917 19.5755 5.89844 19.4062L9.57031 15.5586L9.58984 15.5391L9.64844 15.4805C9.85677 15.2852 10.1888 15.1549 10.6445 15.0898C11.1133 15.0247 11.7773 14.9922 12.6367 14.9922C13.3268 14.9922 13.9062 15.0182 14.375 15.0703C14.8568 15.1094 15.2409 15.1875 15.5273 15.3047C15.8268 15.4219 16.0352 15.5846 16.1523 15.793C16.2826 16.0013 16.3411 16.2747 16.3281 16.6133L15.4688 46.6719C15.4557 46.9714 15.3971 47.2122 15.293 47.3945C15.2018 47.5638 15.0391 47.694 14.8047 47.7852C14.5833 47.8763 14.2969 47.9349 13.9453 47.9609C13.5938 47.987 13.1576 48 12.6367 48C12.1159 48 11.6992 47.987 11.3867 47.9609C11.0742 47.9349 10.8268 47.8763 10.6445 47.7852C10.4753 47.694 10.3581 47.5638 10.293 47.3945C10.2279 47.2122 10.1953 46.9714 10.1953 46.6719L9.76562 23.0391ZM18.4062 46.1055C18.4062 45.6497 18.4518 45.2852 18.543 45.0117C18.6471 44.7253 18.8099 44.4583 19.0312 44.2109L28.0156 32.1211C28.3021 31.7695 28.5495 31.4505 28.7578 31.1641C28.9661 30.8776 29.1289 30.5781 29.2461 30.2656C29.3763 29.9531 29.4674 29.6146 29.5195 29.25C29.5716 28.8854 29.5911 28.4492 29.5781 27.9414L29.3633 20.8711C29.3503 20.3112 29.2852 19.862 29.168 19.5234C29.0508 19.1719 28.8815 18.9115 28.6602 18.7422C28.4518 18.5599 28.1849 18.4427 27.8594 18.3906C27.5469 18.3255 27.1823 18.293 26.7656 18.293C26.349 18.293 25.9779 18.3255 25.6523 18.3906C25.3398 18.4427 25.0729 18.5599 24.8516 18.7422C24.6432 18.9115 24.4805 19.1719 24.3633 19.5234C24.2591 19.862 24.2005 20.3112 24.1875 20.8711L23.9531 29.1523C23.9401 29.543 23.8815 29.862 23.7773 30.1094C23.6732 30.3438 23.5039 30.526 23.2695 30.6562C23.0352 30.7734 22.7227 30.8516 22.332 30.8906C21.9414 30.9297 21.4596 30.9492 20.8867 30.9492C20.3138 30.9492 19.8385 30.9297 19.4609 30.8906C19.0833 30.8516 18.7839 30.7734 18.5625 30.6562C18.3411 30.526 18.1784 30.3438 18.0742 30.1094C17.9831 29.862 17.931 29.543 17.918 29.1523L17.332 21.0273C17.306 20.0508 17.4948 19.1784 17.8984 18.4102C18.3151 17.6289 18.9271 16.9714 19.7344 16.4375C20.5417 15.9036 21.5312 15.4935 22.7031 15.207C23.888 14.9206 25.2422 14.7773 26.7656 14.7773C28.25 14.7773 29.5716 14.9206 30.7305 15.207C31.8893 15.4935 32.8659 15.9036 33.6602 16.4375C34.4544 16.9714 35.0534 17.6289 35.457 18.4102C35.8737 19.1784 36.069 20.0508 36.043 21.0273L35.6133 29.3477C35.6003 29.7904 35.5482 30.207 35.457 30.5977C35.3789 30.9753 35.2487 31.3464 35.0664 31.7109C34.8971 32.0755 34.6758 32.4401 34.4023 32.8047C34.1289 33.1693 33.8034 33.5469 33.4258 33.9375L24.5 44.2109V44.3672H33.8945C34.2331 44.3672 34.4935 44.4062 34.6758 44.4844C34.8711 44.5625 35.0143 44.6797 35.1055 44.8359C35.1966 44.9792 35.2487 45.1549 35.2617 45.3633C35.2878 45.5586 35.3008 45.7799 35.3008 46.0273C35.3008 46.3919 35.2878 46.6979 35.2617 46.9453C35.2487 47.1927 35.1966 47.3945 35.1055 47.5508C35.0143 47.707 34.8711 47.8242 34.6758 47.9023C34.4935 47.9674 34.2331 48 33.8945 48H19.8125C19.526 48 19.2917 47.987 19.1094 47.9609C18.9271 47.9219 18.7839 47.8568 18.6797 47.7656C18.5755 47.6615 18.5039 47.5247 18.4648 47.3555C18.4258 47.1862 18.4062 46.9648 18.4062 46.6914V46.1055ZM38.1016 39.8945C38.0885 39.5039 38.1146 39.1914 38.1797 38.957C38.2578 38.7096 38.401 38.5273 38.6094 38.4102C38.8177 38.2799 39.0977 38.1953 39.4492 38.1562C39.8008 38.1172 40.2565 38.0977 40.8164 38.0977C41.3372 38.0977 41.7734 38.1172 42.125 38.1562C42.4896 38.1953 42.776 38.2799 42.9844 38.4102C43.1927 38.5273 43.3359 38.7096 43.4141 38.957C43.5052 39.1914 43.5443 39.5039 43.5312 39.8945L43.4727 42.0039C43.4466 43.0456 43.694 43.7812 44.2148 44.2109C44.7357 44.6406 45.556 44.8555 46.6758 44.8555H46.7148C47.8216 44.8555 48.6354 44.6406 49.1562 44.2109C49.6901 43.7812 49.944 43.0456 49.918 42.0039L49.8008 37.5312C49.7878 37.0234 49.7161 36.6133 49.5859 36.3008C49.4557 35.9753 49.2604 35.7279 49 35.5586C48.7526 35.3763 48.4336 35.2526 48.043 35.1875C47.6523 35.1224 47.1966 35.0898 46.6758 35.0898H45.582C45.2435 35.0898 44.9766 35.0573 44.7812 34.9922C44.599 34.9271 44.4622 34.8294 44.3711 34.6992C44.2799 34.556 44.2214 34.3737 44.1953 34.1523C44.1823 33.931 44.1758 33.6641 44.1758 33.3516C44.1758 33.0391 44.1823 32.7721 44.1953 32.5508C44.2214 32.3294 44.2799 32.1536 44.3711 32.0234C44.4622 31.8802 44.599 31.7826 44.7812 31.7305C44.9766 31.6654 45.25 31.6328 45.6016 31.6328H46.7148C47.2227 31.6328 47.6523 31.5872 48.0039 31.4961C48.3685 31.4049 48.668 31.2487 48.9023 31.0273C49.1367 30.806 49.2995 30.513 49.3906 30.1484C49.4948 29.7839 49.5404 29.3281 49.5273 28.7812L49.2539 20.8711C49.2279 20.3633 49.1628 19.9466 49.0586 19.6211C48.9674 19.2826 48.8177 19.0156 48.6094 18.8203C48.4141 18.612 48.1536 18.4688 47.8281 18.3906C47.5156 18.3125 47.1315 18.2734 46.6758 18.2734C46.2331 18.2734 45.8555 18.3125 45.543 18.3906C45.2305 18.4688 44.9701 18.612 44.7617 18.8203C44.5534 19.0156 44.3971 19.2826 44.293 19.6211C44.2018 19.9466 44.1497 20.3633 44.1367 20.8711L43.8828 27.6094C43.8698 28.013 43.8112 28.332 43.707 28.5664C43.6029 28.8008 43.4336 28.9831 43.1992 29.1133C42.9648 29.2305 42.6523 29.3086 42.2617 29.3477C41.8711 29.3867 41.3893 29.4062 40.8164 29.4062C40.2435 29.4062 39.7682 29.3867 39.3906 29.3477C39.013 29.3086 38.7135 29.2305 38.4922 29.1133C38.2708 28.9831 38.1081 28.8008 38.0039 28.5664C37.9128 28.332 37.8607 28.013 37.8477 27.6094L37.418 20.5195C37.4049 19.8034 37.5286 19.1654 37.7891 18.6055C38.0495 18.0326 38.4076 17.5378 38.8633 17.1211C39.332 16.6914 39.8724 16.3268 40.4844 16.0273C41.1094 15.7279 41.7669 15.487 42.457 15.3047C43.1471 15.1224 43.8503 14.9922 44.5664 14.9141C45.2956 14.8229 45.9987 14.7773 46.6758 14.7773C47.3529 14.7773 48.0495 14.8229 48.7656 14.9141C49.4948 14.9922 50.2044 15.1224 50.8945 15.3047C51.5846 15.487 52.2357 15.7279 52.8477 16.0273C53.4596 16.3268 53.987 16.6914 54.4297 17.1211C54.8854 17.5378 55.2435 18.0326 55.5039 18.6055C55.7643 19.1654 55.888 19.8034 55.875 20.5195L55.6016 27.7656C55.5755 28.2995 55.5039 28.8203 55.3867 29.3281C55.2826 29.8229 55.0807 30.2982 54.7812 30.7539C54.4818 31.2096 54.0651 31.6458 53.5312 32.0625C53.0104 32.4661 52.3203 32.8503 51.4609 33.2148V33.3711C52.112 33.7487 52.6849 34.1003 53.1797 34.4258C53.6745 34.7513 54.0846 35.1094 54.4102 35.5C54.7357 35.8776 54.9766 36.3138 55.1328 36.8086C55.2891 37.3034 55.3607 37.8958 55.3477 38.5859L55.2109 42.5703C55.1849 43.3385 55.0286 44.0677 54.7422 44.7578C54.4688 45.4349 54 46.0339 53.3359 46.5547C52.6849 47.0625 51.8125 47.4727 50.7188 47.7852C49.638 48.0846 48.2904 48.2344 46.6758 48.2344C45.0742 48.2344 43.7331 48.0846 42.6523 47.7852C41.5846 47.4727 40.7188 47.0625 40.0547 46.5547C39.4036 46.0339 38.9349 45.4349 38.6484 44.7578C38.362 44.0677 38.2057 43.3385 38.1797 42.5703L38.1016 39.8945Z" fill="#7E62C9"/>
</svg>
